<?xml version="1.0" encoding="utf-8"?>
<!-- Generator: Adobe Illustrator 19.0.0, SVG Export Plug-In . SVG Version: 6.00 Build 0)  -->
<svg version="1.1" id="Layer_1" xmlns="http://www.w3.org/2000/svg" xmlns:xlink="http://www.w3.org/1999/xlink" x="0px" y="0px"
	 viewBox="0 0 612 792" style="enable-background:new 0 0 612 792;" xml:space="preserve">
<style type="text/css">
	.st0{fill:#9D9D9D;}
</style>
<g id="XMLID_1_">
	<g id="XMLID_27_">
		<path id="XMLID_31_" class="st0" d="M201.3,327.9c16.3,24.2,32.7,48.3,49,72.5c2.3,3.4,4.6,6.8,6.9,10.3c6.6,9.7,20.1,15,30.8,8.1
			c9.7-6.3,15.1-20.4,8.1-30.8c-16.3-24.2-32.7-48.3-49-72.5c-2.3-3.4-4.6-6.8-6.9-10.3c-6.6-9.7-20.1-15-30.8-8.1
			C199.7,303.3,194.3,317.5,201.3,327.9L201.3,327.9z"/>
	</g>
</g>
<g id="XMLID_2_">
	<g id="XMLID_21_">
		<path id="XMLID_25_" class="st0" d="M296.1,410.7c13.3-21.3,26.5-42.7,39.8-64c21-33.9,42.1-67.7,63.1-101.6
			c4.9-7.8,9.7-15.6,14.6-23.4c6.2-10,2.5-25.2-8.1-30.8c-11-5.8-24.1-2.6-30.8,8.1c-13.3,21.3-26.5,42.7-39.8,64
			c-21,33.9-42.1,67.7-63.1,101.6c-4.9,7.8-9.7,15.6-14.6,23.4c-6.2,10-2.5,25.2,8.1,30.8C276.4,424.6,289.5,421.3,296.1,410.7
			L296.1,410.7z"/>
	</g>
</g>
<g id="XMLID_3_">
	<g id="XMLID_15_">
		<path id="XMLID_19_" class="st0" d="M478.9,299.6c0,5.1-0.2,10.3-0.6,15.4c-0.2,2.3-0.4,4.6-0.7,6.9c-0.1,0.9-0.3,1.8-0.3,2.7
			c0.4-7.2,0.1-0.9-0.2,0.8c-1.6,9.3-3.8,18.6-6.7,27.6c-1.4,4.2-3,8.4-4.6,12.5c-1.8,4.5,2.2-4.9,0.2-0.5c-0.5,1-0.9,2-1.4,3
			c-1.1,2.4-2.3,4.8-3.5,7.2c-4.3,8.4-9.2,16.5-14.7,24.2c-1.3,1.8-2.7,3.5-3.9,5.3c3.9-5.9-0.3,0.3-1.4,1.6
			c-3.1,3.7-6.3,7.3-9.6,10.7c-3.2,3.3-6.5,6.5-9.9,9.5c-1.6,1.5-3.3,2.9-4.9,4.3c-0.8,0.7-1.7,1.4-2.5,2.1c-0.7,0.5-1.4,1.1-2,1.6
			c2.7-2,3.3-2.5,2-1.5c-7.7,5.5-15.4,10.8-23.7,15.4c-3.9,2.1-7.8,4.1-11.8,6c-1.2,0.6-2.4,1.1-3.6,1.6c-3.4,1.5,1.4-0.6,1.7-0.7
			c-2.5,0.6-5,2-7.5,2.9c-9.3,3.4-18.8,6-28.5,7.9c-2.2,0.4-4.5,0.8-6.7,1.2c-0.8,0.1-1.9,0.2-2.7,0.4c6-1.8,2.5-0.3,0.5-0.1
			c-5.1,0.6-10.1,1-15.2,1.2c-9.8,0.4-19.6,0-29.3-1.2c-1.9-0.2-5.5-1.6,0.5,0.1c-1.1-0.3-2.3-0.3-3.4-0.5c-2.5-0.4-4.9-0.9-7.4-1.4
			c-4.9-1-9.7-2.2-14.4-3.5c-4.3-1.2-8.5-2.6-12.7-4.1c-2.1-0.8-4.1-1.6-6.2-2.4c-4.5-1.8,4.9,2.2,0.5,0.2c-1.2-0.5-2.4-1.1-3.6-1.6
			c-8.6-4-16.9-8.6-24.8-13.8c-3.8-2.5-7.4-5.5-11.2-8c5.8,3.8-0.2-0.2-1.6-1.4c-2-1.7-4-3.4-5.9-5.1c-6.8-6.1-13.2-12.8-19-19.8
			c-0.8-1-1.7-2-2.5-3c-2.3-2.9,0.9,1.1,1.1,1.5c-1.3-2-2.9-3.9-4.3-5.8c-2.9-4.1-5.7-8.3-8.2-12.7c-2.2-3.8-4.4-7.6-6.4-11.6
			c-1-2-2-4-2.9-6c-0.5-1-0.9-2-1.4-3c-2.3-5.1,1.5,4-0.1-0.1c-3.4-8.8-6.4-17.6-8.6-26.8c-1.1-4.6-2.1-9.3-2.8-14
			c-0.2-1.1-0.2-2.3-0.5-3.4c1.7,6.1,0.3,2.4,0.1,0.5c-0.3-2.8-0.6-5.5-0.8-8.3c-0.7-9.8-0.7-19.6,0.1-29.4c0.2-2.3,0.4-4.6,0.7-6.9
			c0.2-1.5,1.2-6.3-0.1,0.5c0.2-0.9,0.3-1.8,0.4-2.7c0.8-4.9,1.8-9.8,2.9-14.7c1.2-4.8,2.5-9.6,4-14.2c1.5-4.6,3.7-9.1,5.1-13.8
			c-1.9,6.6,0.1-0.1,0.9-1.9c0.9-2,1.9-4,2.9-6c2.2-4.3,4.5-8.6,7-12.7c2.3-3.8,4.7-7.4,7.2-11c1.4-2,2.9-3.9,4.3-5.8
			c1.8-2.5-3.6,4.5-0.7,0.9c1-1.2,1.9-2.4,2.9-3.6c6-7.2,12.6-13.9,19.6-20.2c1.6-1.5,3.3-2.9,5-4.3c1.3-1.1,7.5-5.3,1.6-1.4
			c4-2.6,7.8-5.7,11.8-8.3c8.1-5.3,16.6-10,25.4-14c0.8-0.4,1.6-0.7,2.4-1.1c4.4-2-5,2-0.5,0.2c2.1-0.8,4.1-1.6,6.2-2.4
			c4.6-1.7,9.3-3.2,14-4.5c4.3-1.2,8.7-2.3,13.2-3.2c2.2-0.5,4.5-0.9,6.7-1.2c1.3-0.2,2.8-0.3,4.1-0.6c-6.1,1.8-2.4,0.3-0.5,0.1
			c10.2-1.2,20.5-1.5,30.7-1.1c4.6,0.2,9.2,0.6,13.8,1.1c0.6,0.1,5.2,0.5,1.1,0.1c-4.1-0.4,0.4,0.1,1.1,0.2c2.7,0.4,5.4,0.9,8.1,1.5
			c9.5,1.9,18.8,4.6,27.8,7.9c2.1,0.8,4.1,1.7,6.2,2.4c2.9,1.1-5.3-2.4-1.1-0.5c1.2,0.5,2.4,1.1,3.6,1.6c4.4,2,8.7,4.2,13,6.6
			c8.1,4.5,15.3,10.1,23.1,15.1c-5.9-3.8,0.1,0.2,1.6,1.4c1.7,1.4,3.3,2.8,5,4.3c3.7,3.3,7.4,6.8,10.8,10.4
			c3.2,3.3,6.2,6.7,9.2,10.2c1.2,1.4,5.2,7.5,1.4,1.6c1.4,2.2,3.2,4.2,4.7,6.3c5.3,7.5,10.1,15.5,14.2,23.7c1,2,2,4,2.9,6
			c0.6,1.2,1.1,2.4,1.6,3.6c1.9,4.2-1.5-4-0.5-1.1c1.7,4.8,3.7,9.5,5.2,14.4c2.9,9,5.1,18.3,6.5,27.6c0.1,0.6,0.6,5.2,0.2,1.1
			c-0.4-4.1,0,0.5,0.1,1.1c0.3,2.3,0.5,4.6,0.7,6.9C478.7,289.3,478.8,294.4,478.9,299.6c0,11.8,10.3,23,22.5,22.5
			c12.2-0.5,22.5-9.9,22.5-22.5c-0.2-43.6-13.4-87.5-38.9-123.1c-26.1-36.3-61.7-63.6-103.7-78.9c-82.6-30.1-180.2-3.4-236,64.5
			c-28.7,35-45.8,76.9-49.4,122.1c-3.5,43.5,7.4,88.5,30,125.8c21.8,36.1,54.7,66.3,93.1,83.7c42.5,19.3,89.3,24.8,135.1,15.5
			c84.5-17.2,153.9-89.1,166.9-174.6c1.8-11.6,3-23.3,3-35.1c0-11.8-10.4-23-22.5-22.5C489.1,277.6,478.9,287,478.9,299.6z"/>
	</g>
</g>
</svg>
